<?xml version="1.0" encoding="UTF-8" standalone="no"?>
<!-- Created with Inkscape (http://www.inkscape.org/) -->

<svg
   xmlns:dc="http://purl.org/dc/elements/1.1/"
   xmlns:cc="http://creativecommons.org/ns#"
   xmlns:rdf="http://www.w3.org/1999/02/22-rdf-syntax-ns#"
   xmlns:svg="http://www.w3.org/2000/svg"
   xmlns="http://www.w3.org/2000/svg"
   xmlns:sodipodi="http://sodipodi.sourceforge.net/DTD/sodipodi-0.dtd"
   xmlns:inkscape="http://www.inkscape.org/namespaces/inkscape"
   width="64px"
   height="64px"
   viewBox="0 0 64 64"
   version="1.1"
   id="SVGRoot"
   inkscape:version="0.92.4 (5da689c313, 2019-01-14)"
   sodipodi:docname="SaveAsIco(LightTheme).svg">
  <defs
     id="defs831" />
  <sodipodi:namedview
     id="base"
     pagecolor="#ffffff"
     bordercolor="#666666"
     borderopacity="1.0"
     inkscape:pageopacity="0.0"
     inkscape:pageshadow="2"
     inkscape:zoom="4"
     inkscape:cx="-13.601323"
     inkscape:cy="41.444473"
     inkscape:document-units="px"
     inkscape:current-layer="layer1"
     showgrid="false"
     inkscape:window-width="1920"
     inkscape:window-height="1017"
     inkscape:window-x="-8"
     inkscape:window-y="-8"
     inkscape:window-maximized="1"
     inkscape:grid-bbox="true" />
  <metadata
     id="metadata834">
    <rdf:RDF>
      <cc:Work
         rdf:about="">
        <dc:format>image/svg+xml</dc:format>
        <dc:type
           rdf:resource="http://purl.org/dc/dcmitype/StillImage" />
        <dc:title />
      </cc:Work>
    </rdf:RDF>
  </metadata>
  <g
     inkscape:label="Layer 1"
     inkscape:groupmode="layer"
     id="layer1">
    <path
       style="color:#000000;font-style:normal;font-variant:normal;font-weight:normal;font-stretch:normal;font-size:medium;line-height:normal;font-family:sans-serif;font-variant-ligatures:normal;font-variant-position:normal;font-variant-caps:normal;font-variant-numeric:normal;font-variant-alternates:normal;font-feature-settings:normal;text-indent:0;text-align:start;text-decoration:none;text-decoration-line:none;text-decoration-style:solid;text-decoration-color:#000000;letter-spacing:normal;word-spacing:normal;text-transform:none;writing-mode:lr-tb;direction:ltr;text-orientation:mixed;dominant-baseline:auto;baseline-shift:baseline;text-anchor:start;white-space:normal;shape-padding:0;clip-rule:nonzero;display:inline;overflow:visible;visibility:visible;opacity:1;isolation:auto;mix-blend-mode:normal;color-interpolation:sRGB;color-interpolation-filters:linearRGB;solid-color:#000000;solid-opacity:1;vector-effect:none;fill:#333333;fill-opacity:1;fill-rule:nonzero;stroke:none;stroke-width:5.72255278;stroke-linecap:butt;stroke-linejoin:round;stroke-miterlimit:1;stroke-dasharray:none;stroke-dashoffset:0;stroke-opacity:1;paint-order:markers fill stroke;color-rendering:auto;image-rendering:auto;shape-rendering:auto;text-rendering:auto;enable-background:accumulate"
       d="M 32,0.02523787 C 14.374717,0.02523787 0.02523787,14.374717 0.02523787,32 0.02523787,49.625283 14.374717,63.974762 32,63.974762 49.625283,63.974762 63.974762,49.625283 63.974762,32 63.974762,14.374717 49.625283,0.02523787 32,0.02523787 Z M 32,5.7477903 C 46.532586,5.7477903 58.25221,17.467414 58.25221,32 58.25221,46.532586 46.532586,58.25221 32,58.25221 17.467414,58.25221 5.7477903,46.532586 5.7477903,32 5.7477903,17.467414 17.467414,5.7477903 32,5.7477903 Z"
       id="path1387"
       inkscape:connector-curvature="0" />
    <path
       style="color:#000000;font-style:normal;font-variant:normal;font-weight:normal;font-stretch:normal;font-size:medium;line-height:normal;font-family:sans-serif;font-variant-ligatures:normal;font-variant-position:normal;font-variant-caps:normal;font-variant-numeric:normal;font-variant-alternates:normal;font-feature-settings:normal;text-indent:0;text-align:start;text-decoration:none;text-decoration-line:none;text-decoration-style:solid;text-decoration-color:#000000;letter-spacing:normal;word-spacing:normal;text-transform:none;writing-mode:lr-tb;direction:ltr;text-orientation:mixed;dominant-baseline:auto;baseline-shift:baseline;text-anchor:start;white-space:normal;shape-padding:0;clip-rule:nonzero;display:inline;overflow:visible;visibility:visible;opacity:1;isolation:auto;mix-blend-mode:normal;color-interpolation:sRGB;color-interpolation-filters:linearRGB;solid-color:#000000;solid-opacity:1;vector-effect:none;fill:#333333;fill-opacity:1;fill-rule:nonzero;stroke:none;stroke-width:2.59542537;stroke-linecap:butt;stroke-linejoin:round;stroke-miterlimit:1;stroke-dasharray:none;stroke-dashoffset:0;stroke-opacity:1;paint-order:markers fill stroke;color-rendering:auto;image-rendering:auto;shape-rendering:auto;text-rendering:auto;enable-background:accumulate"
       d="m 32,26.203681 c -3.186406,0 -5.796319,2.609913 -5.796319,5.796319 0,3.186406 2.609913,5.796319 5.796319,5.796319 3.186406,0 5.796319,-2.609913 5.796319,-5.796319 0,-3.186406 -2.609913,-5.796319 -5.796319,-5.796319 z m 0,2.595267 c 1.783733,0 3.201052,1.417319 3.201052,3.201052 0,1.783733 -1.417319,3.201052 -3.201052,3.201052 -1.783733,0 -3.201052,-1.417319 -3.201052,-3.201052 0,-1.783733 1.417319,-3.201052 3.201052,-3.201052 z"
       id="circle1389"
       inkscape:connector-curvature="0" />
    <path
       style="color:#000000;font-style:normal;font-variant:normal;font-weight:normal;font-stretch:normal;font-size:medium;line-height:normal;font-family:sans-serif;font-variant-ligatures:normal;font-variant-position:normal;font-variant-caps:normal;font-variant-numeric:normal;font-variant-alternates:normal;font-feature-settings:normal;text-indent:0;text-align:start;text-decoration:none;text-decoration-line:none;text-decoration-style:solid;text-decoration-color:#000000;letter-spacing:normal;word-spacing:normal;text-transform:none;writing-mode:lr-tb;direction:ltr;text-orientation:mixed;dominant-baseline:auto;baseline-shift:baseline;text-anchor:start;white-space:normal;shape-padding:0;clip-rule:nonzero;display:inline;overflow:visible;visibility:visible;opacity:1;isolation:auto;mix-blend-mode:normal;color-interpolation:sRGB;color-interpolation-filters:linearRGB;solid-color:#000000;solid-opacity:1;vector-effect:none;fill:#333333;fill-opacity:1;fill-rule:nonzero;stroke:none;stroke-width:3.43353128;stroke-linecap:round;stroke-linejoin:round;stroke-miterlimit:1;stroke-dasharray:none;stroke-dashoffset:0;stroke-opacity:1;paint-order:markers fill stroke;color-rendering:auto;image-rendering:auto;shape-rendering:auto;text-rendering:auto;enable-background:accumulate"
       d="m 32,8.5531825 c -6.007188,0 -12.015298,2.2847235 -16.588696,6.8581215 a 1.7181631,1.7181631 0 1 0 2.429849,2.429849 c 7.834675,-7.834675 20.483018,-7.834675 28.317694,0 a 1.7181631,1.7181631 0 1 0 2.429849,-2.429849 C 44.015298,10.837906 38.007188,8.5531825 32,8.5531825 Z"
       id="circle1395"
       inkscape:connector-curvature="0" />
    <path
       style="color:#000000;font-style:normal;font-variant:normal;font-weight:normal;font-stretch:normal;font-size:medium;line-height:normal;font-family:sans-serif;font-variant-ligatures:normal;font-variant-position:normal;font-variant-caps:normal;font-variant-numeric:normal;font-variant-alternates:normal;font-feature-settings:normal;text-indent:0;text-align:start;text-decoration:none;text-decoration-line:none;text-decoration-style:solid;text-decoration-color:#000000;letter-spacing:normal;word-spacing:normal;text-transform:none;writing-mode:lr-tb;direction:ltr;text-orientation:mixed;dominant-baseline:auto;baseline-shift:baseline;text-anchor:start;white-space:normal;shape-padding:0;clip-rule:nonzero;display:inline;overflow:visible;visibility:visible;opacity:1;isolation:auto;mix-blend-mode:normal;color-interpolation:sRGB;color-interpolation-filters:linearRGB;solid-color:#000000;solid-opacity:1;vector-effect:none;fill:#333333;fill-opacity:1;fill-rule:nonzero;stroke:none;stroke-width:3.43353128;stroke-linecap:round;stroke-linejoin:round;stroke-miterlimit:1;stroke-dasharray:none;stroke-dashoffset:0;stroke-opacity:1;paint-order:markers fill stroke;color-rendering:auto;image-rendering:auto;shape-rendering:auto;text-rendering:auto;enable-background:accumulate"
       d="m 32.388955,15.178825 c -1.837259,-0.0437 -3.704619,0.215408 -5.528075,0.800264 a 1.7169374,1.7169374 0 1 0 1.048389,3.268114 c 5.820053,-1.866724 12.144822,0.430941 15.410656,5.597371 a 1.7169374,1.7169374 0 1 0 2.901512,-1.83524 C 43.151823,18.153316 37.90073,15.309913 32.388955,15.178825 Z"
       id="circle1406"
       inkscape:connector-curvature="0" />
    <path
       style="color:#000000;font-style:normal;font-variant:normal;font-weight:normal;font-stretch:normal;font-size:medium;line-height:normal;font-family:sans-serif;font-variant-ligatures:normal;font-variant-position:normal;font-variant-caps:normal;font-variant-numeric:normal;font-variant-alternates:normal;font-feature-settings:normal;text-indent:0;text-align:start;text-decoration:none;text-decoration-line:none;text-decoration-style:solid;text-decoration-color:#000000;letter-spacing:normal;word-spacing:normal;text-transform:none;writing-mode:lr-tb;direction:ltr;text-orientation:mixed;dominant-baseline:auto;baseline-shift:baseline;text-anchor:start;white-space:normal;shape-padding:0;clip-rule:nonzero;display:inline;overflow:visible;visibility:visible;opacity:1;isolation:auto;mix-blend-mode:normal;color-interpolation:sRGB;color-interpolation-filters:linearRGB;solid-color:#000000;solid-opacity:1;vector-effect:none;fill:#333333;fill-opacity:1;fill-rule:nonzero;stroke:none;stroke-width:3.43353128;stroke-linecap:round;stroke-linejoin:round;stroke-miterlimit:1;stroke-dasharray:none;stroke-dashoffset:0;stroke-opacity:1;paint-order:markers fill stroke;color-rendering:auto;image-rendering:auto;shape-rendering:auto;text-rendering:auto;enable-background:accumulate"
       d="m 25.80802,22.361076 a 1.7169374,1.7169374 0 0 0 -1.064038,0.382248 c -2.730429,2.139978 -4.378484,5.378376 -4.499804,8.845368 -0.12132,3.46699 1.297499,6.812599 3.871665,9.138201 a 1.7169374,1.7169374 0 1 0 2.300198,-2.546088 c -1.82413,-1.647991 -2.826537,-4.014591 -2.740567,-6.471403 0.08597,-2.456813 1.252779,-4.747061 3.187641,-6.263512 A 1.7169374,1.7169374 0 0 0 25.80802,22.361076 Z"
       id="circle1408"
       inkscape:connector-curvature="0" />
    <path
       style="color:#000000;font-style:normal;font-variant:normal;font-weight:normal;font-stretch:normal;font-size:medium;line-height:normal;font-family:sans-serif;font-variant-ligatures:normal;font-variant-position:normal;font-variant-caps:normal;font-variant-numeric:normal;font-variant-alternates:normal;font-feature-settings:normal;text-indent:0;text-align:start;text-decoration:none;text-decoration-line:none;text-decoration-style:solid;text-decoration-color:#000000;letter-spacing:normal;word-spacing:normal;text-transform:none;writing-mode:lr-tb;direction:ltr;text-orientation:mixed;dominant-baseline:auto;baseline-shift:baseline;text-anchor:start;white-space:normal;shape-padding:0;clip-rule:nonzero;display:inline;overflow:visible;visibility:visible;opacity:1;isolation:auto;mix-blend-mode:normal;color-interpolation:sRGB;color-interpolation-filters:linearRGB;solid-color:#000000;solid-opacity:1;vector-effect:none;fill:#525252;fill-opacity:1;fill-rule:nonzero;stroke:none;stroke-width:2.28902078;stroke-linecap:round;stroke-linejoin:round;stroke-miterlimit:1;stroke-dasharray:none;stroke-dashoffset:0;stroke-opacity:1;paint-order:markers fill stroke;color-rendering:auto;image-rendering:auto;shape-rendering:auto;text-rendering:auto;enable-background:accumulate"
       d="M 53.128473,25.840501 C 52.567117,25.520159 52.01417,25.225434 51.506249,24.907116 a 0.73435106,0.73435106 0 0 0 -0.0075,-0.0043 C 50.397411,24.228401 48.942786,24.53098 48.203486,25.5901 a 0.73435106,0.73435106 0 0 0 -0.03212,0.04934 c -4.925846,8.399071 -6.677532,11.437645 -11.589351,19.842633 -0.304136,0.521172 -0.537441,1.236985 -0.766128,2.106719 -0.228687,0.86973 -0.430671,1.871103 -0.570633,2.85012 -0.139963,0.979017 -0.218274,1.929707 -0.187934,2.726412 0.01518,0.398353 0.05371,0.757619 0.149293,1.090046 0.09558,0.332426 0.241868,0.689095 0.639668,0.921245 0.454641,0.265309 0.802517,0.134443 1.107254,0.03179 0.304747,-0.102641 0.610685,-0.257497 0.945161,-0.453024 0.668958,-0.391046 1.438383,-0.945455 2.203223,-1.550365 0.764841,-0.604908 1.519991,-1.258164 2.136686,-1.843245 0.616268,-0.584674 1.07194,-1.037786 1.346292,-1.507465 l 6.92e-4,-0.0012 C 48.510741,41.455253 50.001126,38.864464 54.912637,30.46 c 0.329874,-0.458408 0.565342,-1.005014 0.615332,-1.603595 0.05258,-0.629453 -0.133256,-1.338301 -0.652626,-1.863644 a 0.73435106,0.73435106 0 0 0 -0.07232,-0.0638 c -0.543379,-0.422169 -1.113149,-0.768127 -1.674504,-1.088469 z m -2.396361,0.313518 c 1.101662,0.689714 2.211939,1.214378 3.10756,1.896477 0.184774,0.197423 0.249369,0.400339 0.225754,0.683016 -0.02446,0.293067 -0.168238,0.644204 -0.372095,0.913639 a 0.73435106,0.73435106 0 0 0 -0.04831,0.07143 c -4.709534,8.058857 -6.398399,10.981482 -10.857856,18.589088 -0.09855,0.06727 -0.252021,0.149776 -0.478512,0.213919 -0.45833,0.129807 -1.179567,0.166799 -2.315706,-0.496215 -1.134141,-0.661841 -1.510514,-1.353269 -1.661913,-1.869804 -0.07682,-0.262195 -0.09354,-0.462602 -0.09169,-0.599784 4.538861,-7.769266 6.438575,-11.056209 11.171588,-19.126673 0.269554,-0.382587 0.921616,-0.519787 1.321203,-0.275091 z M 37.39677,47.443525 c 0.37011,0.610468 0.964619,1.245371 1.892855,1.787051 0.840247,0.490337 1.601383,0.6996 2.254239,0.740966 -0.109289,0.11151 -0.191632,0.206747 -0.315323,0.324093 -0.578102,0.548465 -1.308096,1.179261 -2.03788,1.756444 -0.729782,0.577186 -1.465931,1.10382 -2.03318,1.435396 -0.231955,0.135598 -0.40343,0.211015 -0.549643,0.270385 -0.03658,-0.155746 -0.07257,-0.363436 -0.0834,-0.648101 -0.02473,-0.649551 0.04371,-1.541906 0.175397,-2.463072 0.131692,-0.92116 0.324606,-1.877127 0.536745,-2.683922 0.05115,-0.19454 0.106291,-0.343654 0.1602,-0.519227 z"
       id="rect3152"
       inkscape:connector-curvature="0" />
  </g>
</svg>
